<svg xmlns="http://www.w3.org/2000/svg" xmlns:xlink="http://www.w3.org/1999/xlink" width="300" height="80" viewBox="0 0 300 80"><defs><style>.a{fill:#fff;}.b{fill:#ff0048;}.c{fill:url(#a);}.d{mask:url(#b);}.e{fill:#1111f8;}</style><linearGradient id="a" x1="1.74" y1="-1421.69" x2="48.58" y2="-1421.69" gradientTransform="matrix(1, 0, 0, -1, 0, -1382)" gradientUnits="userSpaceOnUse"><stop offset="0" stop-color="#fae4ea"/><stop offset="1" stop-color="#f5f5ff"/></linearGradient><mask id="b" x="-6.81" y="8.15" width="63.87" height="62.85" maskUnits="userSpaceOnUse"><ellipse class="a" cx="25.16" cy="39.69" rx="23.42" ry="23.05"/></mask></defs><title>repo-headers</title><ellipse class="b" cx="23.42" cy="42.25" rx="23.42" ry="23.05"/><ellipse class="c" cx="25.16" cy="39.69" rx="23.42" ry="23.05"/><g class="d"><polygon class="e" points="23.86 71 22.63 69.79 55.83 37.12 57.05 38.33 23.86 71"/><polygon class="e" points="18.95 66.17 17.72 64.96 50.92 32.3 52.15 33.5 18.95 66.17"/><polygon class="e" points="14.04 61.34 12.81 60.14 46.01 27.47 47.24 28.67 14.04 61.34"/><polygon class="e" points="9.13 56.51 7.91 55.31 41.11 22.64 42.33 23.84 9.13 56.51"/><polygon class="e" points="4.23 51.69 3 50.48 36.2 17.81 37.43 19.02 4.23 51.69"/><polygon class="e" points="-0.68 46.86 -1.91 45.65 31.29 12.98 32.52 14.19 -0.68 46.86"/><polygon class="e" points="-5.59 42.03 -6.82 40.82 26.39 8.15 27.61 9.36 -5.59 42.03"/></g><path d="M69.87,42.54V34.06h2.65v8.73c0,2.92-2.11,4.86-5.38,4.86s-5.39-1.94-5.39-4.86V34.06h2.64v8.48a2.74,2.74,0,1,0,5.48,0Z"/><path d="M75.7,47.39V34.06h2.64V47.39Z"/><path d="M88.64,47.39V36.27H84.86V34.06H95.08v2.21H91.29V47.39Z"/><path d="M104.88,41.6v1.16c0,3.08-1.89,4.82-4.72,4.82s-4.76-1.72-4.76-4.82V41.62a4.5,4.5,0,0,1,4.76-4.78A4.44,4.44,0,0,1,104.88,41.6ZM98,41.67v1.07c0,1.56.67,2.84,2.16,2.84s2.12-1.27,2.12-2.84V41.67c0-1.57-.7-2.83-2.12-2.83S98,40.11,98,41.67Z"/><path d="M116.47,41.6v1.16c0,3.08-1.89,4.82-4.72,4.82S107,45.86,107,42.76V41.62a4.5,4.5,0,0,1,4.76-4.78A4.44,4.44,0,0,1,116.47,41.6Zm-6.88.07v1.07c0,1.56.67,2.84,2.16,2.84s2.13-1.27,2.13-2.84V41.67c0-1.57-.71-2.83-2.13-2.83S109.59,40.11,109.59,41.67Z"/><path d="M119.13,33.36h2.58v14h-2.58Z"/><path d="M127.53,45.81h-.13v1.58h-2.54v-14h2.58v5.31h.13a2.94,2.94,0,0,1,3-1.78c2.4,0,3.85,1.73,3.85,4.61v1.41c0,2.88-1.46,4.62-3.89,4.62A3,3,0,0,1,127.53,45.81Zm4.26-3.14v-.89c0-1.8-.79-2.84-2.15-2.84s-2.2,1-2.2,2.69v1.29a2.3,2.3,0,0,0,2.23,2.56C131,45.48,131.79,44.45,131.79,42.67Z"/><path d="M146,41.6v1.16a4.42,4.42,0,0,1-4.73,4.82c-2.87,0-4.76-1.72-4.76-4.82V41.62a4.5,4.5,0,0,1,4.76-4.78A4.45,4.45,0,0,1,146,41.6Zm-6.89.07v1.07c0,1.56.67,2.84,2.16,2.84s2.13-1.27,2.13-2.84V41.67c0-1.57-.71-2.83-2.13-2.83S139.15,40.11,139.15,41.67Z"/><path d="M152.3,43.89h-.09l-2,3.5h-2.75l3.23-5.14L147.34,37h3l2,3.49h.11l2-3.49h2.85l-3.4,5.11,3.35,5.25h-2.89Z"/></svg>